<?xml version="1.0" encoding="UTF-8"?>
<svg version="1.1" xmlns="http://www.w3.org/2000/svg" width="512" height="512">
<path d="M0 0 C1.24249512 0.20898926 2.48499023 0.41797852 3.76513672 0.63330078 C52.38835594 8.92029142 112.6643621 22.44955837 151 55 C151.84820312 55.66386719 152.69640625 56.32773438 153.5703125 57.01171875 C157.19087944 59.97452996 160.03927994 63.39125086 163 67 C163.70382812 67.85464844 164.40765625 68.70929688 165.1328125 69.58984375 C174.78010028 81.84223538 182.21823416 95.81341422 186 111 C186.24520889 111.95569382 186.49041779 112.91138763 186.74305725 113.89604187 C189.38265171 125.41663364 189.49132296 136.70114319 189.50390625 148.48046875 C189.51357106 150.62746878 189.52366522 152.77446691 189.53416443 154.92146301 C189.5520113 159.39519838 189.55769666 163.8687609 189.5559082 168.3425293 C189.55560245 174.04840035 189.59670446 179.75315897 189.64822483 185.45876598 C189.68170912 189.88313309 189.6876623 194.30723345 189.68607903 198.73171425 C189.68959507 200.83468809 189.70272807 202.93767064 189.72607613 205.04051781 C189.86637343 218.9682928 189.29770086 229.15324203 179.625 240 C172.79738016 246.11362038 165.10646164 248.56404564 156 249 C143.72145303 247.45797333 131.60226601 244.07900314 119.609375 241.10546875 C118.66816048 240.8729925 117.72694595 240.64051624 116.75720978 240.40099525 C111.7883783 239.17364156 106.82087398 237.94108497 101.85449219 236.70385742 C96.76544615 235.43710045 91.67225708 234.18791269 86.57790756 232.94268322 C82.61869226 231.97159842 78.66273326 230.98772626 74.70752716 230.00045204 C72.83184854 229.53453196 70.95500883 229.07325767 69.0769577 228.61699486 C40.14332291 221.57340382 40.14332291 221.57340382 31.99993896 208.37973022 C27.95410767 200.74668876 28.39513587 192.7676539 28.390625 184.37109375 C28.37562262 182.76968226 28.35889119 181.16828612 28.34051514 179.56690979 C28.29705978 175.37978352 28.27689138 171.19286588 28.26177979 167.0055542 C28.24212944 162.72167739 28.20016868 158.43802333 28.16015625 154.15429688 C28.08509086 145.76958991 28.03465675 137.38497096 28 129 C24.97751699 127.87632141 21.95371985 126.75622037 18.9296875 125.63671875 C18.08108154 125.32118042 17.23247559 125.00564209 16.3581543 124.68054199 C-5.19764915 116.71019788 -27.29988523 112.76971889 -50.25 112.75 C-51.31196594 112.74898788 -51.31196594 112.74898788 -52.39538574 112.74795532 C-64.47229498 112.76616086 -76.15407636 113.54728787 -88 116 C-89.21888916 116.24943359 -89.21888916 116.24943359 -90.46240234 116.50390625 C-100.4737019 118.62686001 -110.03852938 121.61787354 -119.62890625 125.17578125 C-120.63280396 125.54465454 -121.63670166 125.91352783 -122.67102051 126.2935791 C-125.11530991 127.19226842 -127.55824546 128.09445117 -130 129 C-129.99920441 129.87537415 -129.99840881 130.75074829 -129.99758911 131.65264893 C-129.9953707 139.9491118 -130.0220572 148.24488939 -130.0802784 156.54115677 C-130.10920842 160.80525392 -130.12741116 165.06880656 -130.12011719 169.33300781 C-130.11347372 173.45722569 -130.13628967 177.58037236 -130.17855453 181.70436859 C-130.1895974 183.2685845 -130.19046654 184.83291023 -130.18042374 186.39713287 C-130.11934984 197.32014611 -131.39139447 206.72825273 -138.99490356 215.23077393 C-145.76401296 221.81974198 -154.69737445 224.43840154 -163.67553711 226.64135742 C-164.5971312 226.87442093 -165.51872528 227.10748444 -166.46824646 227.34761047 C-169.48595815 228.10841535 -172.50647572 228.85730359 -175.52734375 229.60546875 C-177.64299707 230.13492678 -179.75851932 230.66490881 -181.87391663 231.19538879 C-186.29639976 232.30245715 -190.72027844 233.40370904 -195.14526367 234.50073242 C-200.79766171 235.90246529 -206.44653839 237.31782934 -212.09445858 238.73748302 C-216.45906393 239.83309784 -220.82536163 240.92183816 -225.19220161 242.00850868 C-227.27496903 242.52757908 -229.35723763 243.04865546 -231.4389782 243.57182884 C-234.35600793 244.30373867 -237.27517569 245.02643492 -240.19506836 245.74682617 C-241.04264709 245.96136444 -241.89022583 246.17590271 -242.76348877 246.39694214 C-253.9535168 249.13090706 -264.13955009 250.229498 -274.6875 244.8125 C-282.97941551 239.76715458 -288.32941184 233.42765453 -291 224 C-291.93215017 216.68779868 -291.6802844 209.25800475 -291.62890625 201.90234375 C-291.62973665 199.74158102 -291.63220245 197.58081837 -291.63621521 195.4200592 C-291.63906489 190.90036911 -291.62446161 186.38117677 -291.59692383 181.86157227 C-291.56298695 176.11823709 -291.56881975 170.37579946 -291.5875864 164.63242245 C-291.59825158 160.17003648 -291.58913064 155.70785259 -291.57420158 151.24548531 C-291.56907909 149.13076951 -291.56942796 147.01603206 -291.57574654 144.9013195 C-291.63073718 115.42266619 -283.73479158 90.30097734 -265 67 C-264.42507813 66.27039063 -263.85015625 65.54078125 -263.2578125 64.7890625 C-258.51691769 59.05008457 -252.88410206 54.52371078 -247 50 C-246.21882813 49.3915625 -245.43765625 48.783125 -244.6328125 48.15625 C-202.84665182 17.20353839 -137.61679308 3.3185297 -87 -3 C-86.1445459 -3.10981201 -85.2890918 -3.21962402 -84.40771484 -3.33276367 C-56.61498772 -6.38651895 -27.45782664 -4.81166426 0 0 Z M-202 63 C-203.40620605 63.61004883 -203.40620605 63.61004883 -204.84082031 64.23242188 C-227.37235797 74.06532162 -244.00794534 88.67688874 -253.375 111.75 C-259.26097267 127.01128053 -259.15170437 142.53194077 -259.09765625 158.67578125 C-259.09578624 160.33871925 -259.0943651 162.00165781 -259.09336853 163.66459656 C-259.08958923 167.99634377 -259.07979934 172.32805632 -259.06866455 176.65979004 C-259.0583506 181.09805838 -259.05384973 185.53633245 -259.04882812 189.97460938 C-259.03817194 198.64975532 -259.02115218 207.32487332 -259 216 C-251.05989848 214.05424634 -243.12032413 212.10635933 -235.1813345 210.15607452 C-231.49099748 209.24957347 -227.80051229 208.34368738 -224.10961914 207.43945312 C-203.70092759 202.43889163 -183.33271505 197.30147603 -163 192 C-162.99635437 191.11796402 -162.99270874 190.23592804 -162.98895264 189.3271637 C-162.95097356 180.98569113 -162.89400879 172.64460561 -162.81609726 164.30340672 C-162.77670816 160.01581427 -162.74447797 155.72842457 -162.72900391 151.44067383 C-162.71378045 147.29718012 -162.67923539 143.1542441 -162.63169098 139.01099968 C-162.61693549 137.43594162 -162.60896235 135.86080391 -162.60811615 134.28567696 C-162.59589237 122.934048 -161.51767404 113.57231813 -153.3828125 104.9609375 C-123.49601068 80.36556944 -70.5650952 75.35711629 -33.625 78.50390625 C-12.26190111 80.58170876 8.01840192 85.15886472 28 93 C28.81581543 93.3187207 29.63163086 93.63744141 30.47216797 93.96582031 C41.2473645 98.2536688 51.8459092 102.49855711 57.5 113.3125 C59.49909317 118.22693739 60.14067714 121.65828562 60.20532227 126.94995117 C60.21522186 127.65264633 60.22512146 128.35534149 60.23532104 129.07933044 C60.26689234 131.40050901 60.29167613 133.72170805 60.31640625 136.04296875 C60.33697956 137.65294423 60.35797613 139.26291436 60.37937927 140.87287903 C60.43456106 145.10936138 60.48398749 149.34589216 60.53222656 153.5824585 C60.58247001 157.90592761 60.63814123 162.22932644 60.69335938 166.55273438 C60.80089334 175.03509681 60.90234887 183.51751807 61 192 C69.82498048 194.24526199 78.6504345 196.48865136 87.47644711 198.72985268 C91.57769914 199.7713472 95.67880426 200.81341193 99.77954102 201.85693359 C118.82276706 206.70243296 137.87267896 211.49480667 157 216 C157.04674013 206.53210403 157.08207769 197.06424896 157.10362434 187.59626198 C157.11397572 183.19792168 157.12797274 178.79966144 157.15087891 174.40136719 C157.17292099 170.14138398 157.18463323 165.88147681 157.18975449 161.62144089 C157.1933949 160.01189353 157.20049962 158.4023494 157.21146011 156.79283524 C157.26714234 148.26157933 157.03695289 139.84926802 156.12841797 131.36083984 C156.05280199 130.63887735 155.97718601 129.91691486 155.89927864 129.17307472 C153.98864397 113.06162459 146.61044908 99.06178592 136 87 C135.00033203 85.85724609 135.00033203 85.85724609 133.98046875 84.69140625 C94.53407447 42.46400458 10.49794951 30.13391823 -43.74560547 27.88623047 C-99.22169344 26.16377431 -151.68145809 40.94455783 -202 63 Z " fill="#000000" transform="translate(307,38)"/>
<path d="M0 0 C4.97186729 2.30836696 7.34445337 5.26535027 10 10 C10.38110528 12.76928519 10.5488243 15.13599662 10.51898193 17.896698 C10.52648319 18.67361594 10.53398444 19.45053389 10.541713 20.2509948 C10.56195213 22.84452459 10.55389518 25.43717698 10.54589844 28.03076172 C10.55463552 29.89370079 10.56512177 31.75663236 10.57722473 33.61955261 C10.60508874 38.67074881 10.60848932 43.72170019 10.60750484 48.77296209 C10.61063358 54.05411101 10.63625101 59.33514961 10.65948486 64.61624146 C10.7000513 74.61396774 10.72038712 84.61162879 10.73345876 94.60942471 C10.74932659 105.99271901 10.78774134 117.37590225 10.82805204 128.75913215 C10.91045984 152.1727175 10.96454648 175.5862998 11 199 C11.65510559 198.34045319 12.31021118 197.68090637 12.98516846 197.00137329 C19.15969091 190.78677739 25.33901364 184.57700354 31.52377701 178.37259865 C34.70325557 175.18268275 37.88084679 171.99093308 41.05419922 168.79492188 C44.11669801 165.71069315 47.18405593 162.63137507 50.25484467 159.55540085 C51.42556906 158.38098099 52.59453165 157.20480214 53.76169586 156.02684402 C55.39672302 154.37730016 57.03790156 152.7341206 58.68066406 151.09228516 C59.1618721 150.60388657 59.64308014 150.11548798 60.13887024 149.61228943 C64.31017092 145.46639202 67.36543973 143.70175635 73.25 143.5 C78.49546231 143.5981771 81.49056281 144.85438936 85.40625 148.3046875 C89.79684748 152.97507796 90.34796292 157.27525743 90.49609375 163.4375 C89.15477933 170.36586425 82.87403641 175.41075503 78.08203125 180.17675781 C76.89110367 181.37294235 76.89110367 181.37294235 75.67611694 182.59329224 C73.05990797 185.218278 70.4364818 187.83591078 67.8125 190.453125 C65.98904644 192.2779261 64.16588984 194.10302398 62.34301758 195.92840576 C58.52651814 199.74785075 54.70652977 203.563756 50.88378906 207.37695312 C46.46747034 211.78237341 42.05842357 216.1949733 37.65305424 220.61134076 C33.40747002 224.86709822 29.15628133 229.11720607 24.90267944 233.36495209 C23.09586704 235.17042925 21.29054212 236.97739624 19.48672485 238.78586578 C16.96860907 241.30905082 14.44418808 243.82575214 11.91796875 246.34082031 C11.17187347 247.09096405 10.4257782 247.84110779 9.65707397 248.61398315 C8.96739532 249.29802216 8.27771667 249.98206116 7.56713867 250.68682861 C6.67341805 251.57941816 6.67341805 251.57941816 5.76164246 252.49003983 C2.04620809 255.67465763 -1.03026325 256.31336213 -5.875 256.375 C-6.88304687 256.40335937 -7.89109375 256.43171875 -8.9296875 256.4609375 C-16.18470228 255.37176225 -21.2232374 249.06795876 -26.17675781 244.09790039 C-26.97421417 243.30555496 -27.77167053 242.51320953 -28.59329224 241.69685364 C-31.21841349 239.08559285 -33.83607941 236.46700882 -36.453125 233.84765625 C-38.27799852 232.02667051 -40.10309535 230.20590853 -41.92840576 228.38536072 C-45.74800568 224.57321459 -49.56378377 220.75729765 -53.37695312 216.9387207 C-57.78082719 212.52879756 -62.19382121 208.12815363 -66.61134076 203.73190314 C-70.86921603 199.49377347 -75.11869875 195.24733468 -79.36495209 190.99755669 C-81.1695468 189.19347576 -82.97651015 187.39176095 -84.78586578 185.59245491 C-87.31140509 183.07923006 -89.82724573 180.55667762 -92.34082031 178.03149414 C-93.46603592 176.91774414 -93.46603592 176.91774414 -94.61398315 175.78149414 C-95.29802216 175.09044083 -95.98206116 174.39938751 -96.68682861 173.68739319 C-97.57941816 172.79505525 -97.57941816 172.79505525 -98.49003983 171.88469028 C-102.02492692 167.47254255 -102.44683834 162.96472731 -102.30859375 157.5 C-101.79725842 153.35753655 -100.5892128 151.31950359 -98 148 C-93.17938294 144.23991869 -89.57547864 143.55660376 -83.52734375 143.56640625 C-77.58490846 144.58589669 -73.68789961 147.94121332 -69.54541016 152.11401367 C-69.03734833 152.62163742 -68.5292865 153.12926117 -68.00582886 153.65226746 C-66.34302109 155.31715051 -64.69106942 156.99237383 -63.0390625 158.66796875 C-61.88244283 159.83018885 -60.72515515 160.99174451 -59.56723022 162.15266418 C-56.53238712 165.19892081 -53.50666459 168.25408052 -50.48278809 171.31121826 C-47.39114568 174.43363692 -44.29091409 177.54750178 -41.19140625 180.66210938 C-35.11919164 186.76642648 -29.0565909 192.88018121 -23 199 C-22.99853344 198.03147535 -22.99706688 197.06295071 -22.99555588 196.06507683 C-22.95896933 172.50438215 -22.89953082 148.94382972 -22.81609726 125.3832531 C-22.77627913 113.98954912 -22.74390071 102.5959145 -22.72900391 91.20214844 C-22.71600179 81.27193938 -22.68907392 71.34188273 -22.64538693 61.4117595 C-22.62273979 56.15326455 -22.60709127 50.89495781 -22.60811615 45.63640976 C-22.60886083 40.68693804 -22.59098703 35.73788287 -22.55883217 30.78851891 C-22.55031323 28.97209383 -22.54859674 27.15562213 -22.55419731 25.33918571 C-22.56082884 22.857869 -22.5429381 20.37788093 -22.51898193 17.896698 C-22.52674235 17.17878582 -22.53450277 16.46087364 -22.54249835 15.72120655 C-22.4567395 10.69963854 -21.11141016 7.88944852 -18 4 C-12.72867143 -1.00776214 -6.89190982 -0.92775709 0 0 Z " fill="#000000" transform="translate(262,224)"/>
</svg>
