<?xml version="1.0" encoding="UTF-8"?>
<svg version="1.1" xmlns="http://www.w3.org/2000/svg" width="512" height="512">
<path d="M0 0 C1.29461271 -0.00706559 2.58922542 -0.01413118 3.92306882 -0.02141088 C5.36823132 -0.0191593 6.81339353 -0.01671278 8.25855541 -0.01409245 C9.78717203 -0.01854242 11.31578634 -0.02385566 12.84439725 -0.02996117 C17.05603708 -0.0441806 21.26760326 -0.04580372 25.47926366 -0.04536426 C30.01721602 -0.047009 34.55513772 -0.06006907 39.09307384 -0.07155704 C49.02066795 -0.09443269 58.94824071 -0.10233037 68.87585759 -0.10738349 C75.07194065 -0.11063746 81.26801748 -0.1171581 87.46409702 -0.12438488 C104.61148695 -0.14395396 121.75887108 -0.16035643 138.90627289 -0.16326141 C140.00414193 -0.16344898 141.10201097 -0.16363655 142.23314876 -0.16382981 C144.4589028 -0.16419606 146.68465683 -0.16455976 148.91041086 -0.16492092 C150.01531367 -0.16510373 151.12021648 -0.16528654 152.25860119 -0.16547489 C153.91797276 -0.16574572 153.91797276 -0.16574572 155.61086699 -0.16602201 C173.54158788 -0.16956469 191.47218875 -0.19659154 209.40286801 -0.23397278 C227.80186031 -0.27202412 246.20079302 -0.29141866 264.59982556 -0.29172093 C274.93434367 -0.2923062 285.26871862 -0.30084347 295.60319996 -0.32971859 C304.40222209 -0.35419005 313.20104884 -0.36154407 322.00009576 -0.34647106 C326.49101883 -0.33928481 330.98155578 -0.34023305 335.47243595 -0.36288166 C339.58265026 -0.38341222 343.69218014 -0.38092741 347.80238654 -0.36000682 C349.2902858 -0.35650049 350.77823385 -0.3614702 352.26606909 -0.37571125 C364.77613733 -0.48774801 364.77613733 -0.48774801 368.71519279 2.67348289 C371.63537419 6.2057288 371.97914744 7.79556161 371.98779297 12.28672409 C371.99225081 13.35702514 371.99670866 14.42732618 372.00130159 15.53006059 C372.00102504 17.30798786 372.00102504 17.30798786 372.00074291 19.12183285 C372.0044196 20.37366444 372.00809629 21.62549604 372.01188439 22.91526192 C372.02192031 26.40137491 372.02562373 29.88747068 372.0282737 33.37359607 C372.03217201 37.12898199 372.04175063 40.88435421 372.05048656 44.63973141 C372.07026376 53.71426515 372.0803185 62.78880003 372.08921435 71.86334994 C372.09359496 76.13390077 372.09896233 80.40445035 372.10420322 84.67500019 C372.1212163 98.86624837 372.13571149 113.05749578 372.14295197 127.24875259 C372.14486194 130.93277964 372.14678226 134.61680668 372.14873791 138.3008337 C372.14922165 139.21650988 372.14970539 140.13218606 372.15020379 141.07561 C372.15850788 155.91605507 372.18385083 170.75641962 372.21631858 185.59682951 C372.2493613 200.8238357 372.26739817 216.05080094 372.27059621 231.27784318 C372.27276383 239.8310776 372.28154929 248.3841946 372.30705738 256.93739414 C372.32872631 264.22020442 372.33683363 271.50286877 372.3270906 278.78570763 C372.32253485 282.50281915 372.32450553 286.21962935 372.34385204 289.93669987 C372.36463154 293.96379394 372.35453417 297.99021494 372.34131908 302.01734066 C372.35777295 303.78522968 372.35777295 303.78522968 372.37455922 305.58883363 C372.31157721 313.50204726 372.31157721 313.50204726 369.92961788 317.44427395 C365.22686551 321.55747887 361.24502893 321.55301591 355.12530041 321.53472042 C353.80510906 321.54238682 353.80510906 321.54238682 352.45824718 321.55020809 C349.54958828 321.56410535 346.64116629 321.56314724 343.73247814 321.56084347 C341.70992984 321.56473026 339.68738236 321.5690649 337.66483593 321.5738287 C333.42555629 321.58129115 329.18635993 321.58099938 324.94707775 321.57573605 C319.51517278 321.56994077 314.08360871 321.58687379 308.6517601 321.61008072 C304.47474201 321.62481395 300.29780611 321.62569032 296.12076664 321.62257099 C294.11810093 321.62308439 292.11543063 321.62832557 290.11279011 321.63838291 C287.31204746 321.65072221 284.51196995 321.64397069 281.71123791 321.63237667 C280.88458126 321.64002041 280.05792461 321.64766415 279.20621777 321.65553951 C273.57021013 321.60398276 270.31783741 320.46940372 266.04107189 316.63506222 C264.17945868 312.9118358 264.17814769 309.3343953 264.85357189 305.26006222 C266.64750857 302.38976353 267.83620465 300.76874584 270.85357189 299.26006222 C296.92357189 299.26006222 322.99357189 299.26006222 349.85357189 299.26006222 C349.85357189 207.85006222 349.85357189 116.44006222 349.85357189 22.26006222 C237.65357189 22.26006222 125.45357189 22.26006222 9.85357189 22.26006222 C9.85357189 25.89006222 9.85357189 29.52006222 9.85357189 33.26006222 C8.36898469 38.01074125 7.09372481 40.66927606 2.85357189 43.26006222 C-0.54857467 43.92389569 -3.73507021 43.86174185 -7.14642811 43.26006222 C-10.49267835 40.73330183 -11.82620658 39.2207268 -13.14642811 35.26006222 C-13.43448106 30.8272252 -13.42417744 26.38869811 -13.45892811 21.94756222 C-13.48793201 20.72359737 -13.51693592 19.49963253 -13.54681873 18.23857784 C-13.62661741 6.95013426 -13.62661741 6.95013426 -9.14642811 2.26006222 C-5.61849047 -0.09189621 -4.17831449 0.00726121 0 0 Z " fill="#000000" transform="translate(55.14642810821533,84.7399377822876)"/>
<path d="M0 0 C21.65488923 9.96638153 41.5127661 22.52829232 58.92578125 38.87890625 C61.00041939 40.82046727 63.1224957 42.65400503 65.30078125 44.4765625 C103.86162152 78.26618318 126.43468619 131.0761582 132.30078125 181.1015625 C132.43226563 182.20628906 132.56375 183.31101562 132.69921875 184.44921875 C132.98680757 187.33676593 133.17277496 190.20259662 133.30078125 193.1015625 C133.33333008 193.74641602 133.36587891 194.39126953 133.39941406 195.05566406 C133.49719272 197.19593018 133.5599068 199.3347602 133.61328125 201.4765625 C133.65066406 202.78367187 133.68804687 204.09078125 133.7265625 205.4375 C133.22608376 209.74437213 132.07684358 211.80529234 129.30078125 215.1015625 C125.71428756 217.60145513 122.68810744 217.35409199 118.4921875 216.7734375 C114.61160966 215.58367032 113.40659825 213.52351512 111.30078125 210.1015625 C110.29810094 206.47897557 110.17137738 202.92409299 110.06201172 199.17895508 C108.56605332 151.95719555 90.51338306 106.20622035 58.453125 71.44140625 C56.33361511 69.13725666 54.28642783 66.78160816 52.23828125 64.4140625 C48.5303002 60.25618942 44.61307199 56.62267263 40.30078125 53.1015625 C39.30433594 52.27914062 38.30789062 51.45671875 37.28125 50.609375 C2.73082752 22.52736568 -39.62543198 5.62486763 -84.34667969 4.47924805 C-90.03179549 4.30197967 -95.20645181 3.74154075 -100.07421875 0.5390625 C-102.49991799 -3.09948637 -103.02272523 -6.55743196 -102.69921875 -10.8984375 C-90.57159698 -35.60285221 -17.40504076 -7.71235223 0 0 Z " fill="#000000" transform="translate(144.69921875,188.8984375)"/>
<path d="M0 0 C40.43546777 17.9510603 70.70235542 50.33462514 86.91015625 91.328125 C93.09418706 107.74525442 102.10926722 136.01171674 95.8984375 153.2109375 C94.0642794 156.25578494 91.88973982 157.80264406 88.66015625 159.1015625 C84.85151975 159.42860105 81.13354293 159.19706883 78 156.8671875 C74.1131568 152.4704086 73.64474875 148.02028474 73.265625 142.3984375 C70.62286926 106.79061134 58.26281921 77.21686658 33.66015625 51.1015625 C32.76103516 50.10576172 32.76103516 50.10576172 31.84375 49.08984375 C10.28993374 26.13945193 -22.62149943 12.89047014 -53.63671875 10.71875 C-55.0458252 10.6108313 -55.0458252 10.6108313 -56.48339844 10.50073242 C-58.35237399 10.36223654 -60.22302142 10.24437139 -62.09472656 10.1496582 C-66.52001649 9.82431775 -68.77109471 9.52866906 -72.3984375 6.8046875 C-75.18446815 2.92554623 -75.77231721 -0.17449663 -75.33984375 -4.8984375 C-65.32174162 -25.30568259 -15.44277981 -6.60955279 0 0 Z " fill="#000000" transform="translate(117.33984375,246.8984375)"/>
<path d="M0 0 C24.22951463 10.68388047 42.58129649 29.54397345 52.52734375 54.1328125 C55.70946828 63.03888054 58.38402845 72.22546987 58.80859375 81.71875 C58.87175781 82.63527344 58.93492187 83.55179687 59 84.49609375 C59.19363181 89.14950329 59.14223623 92.03954923 57.05859375 96.28125 C54.4385937 99.11958339 52.51858768 100.57191689 48.625 100.90625 C47.50931641 100.8134375 47.50931641 100.8134375 46.37109375 100.71875 C45.62988281 100.6775 44.88867188 100.63625 44.125 100.59375 C40.56162758 99.24772062 38.58568512 96.9831492 36.80859375 93.71875 C35.90639847 90.37504502 35.57359204 87.03554856 35.24609375 83.59375 C32.83067484 63.56848212 24.81294451 45.85378116 9.18359375 32.53125 C-4.74188403 22.04947616 -20.03560569 16.60920541 -37.47021484 15.66455078 C-41.24356611 15.36762838 -43.10604177 14.78553716 -46.1171875 12.4296875 C-49.06321927 8.57931829 -49.62950493 5.50413562 -49.19140625 0.71875 C-41.29822152 -15.35995964 -12.92942854 -5.38242303 0 0 Z " fill="#000000" transform="translate(91.19140625,305.28125)"/>
<path d="M0 0 C5.74841562 3.32865134 9.60440035 8.15992367 11.6875 14.4375 C12.84433398 22.36485705 11.39064439 28.9281605 6.6875 35.4375 C0.5398498 41.28920205 -5.53844274 41.90681136 -13.71875 41.84765625 C-19.78259394 41.1555871 -23.78599189 38.38038794 -27.7109375 33.80859375 C-32.16890828 27.50103936 -31.81639388 20.86764437 -31.3125 13.4375 C-29.25000382 7.3585639 -25.18307988 3.32794533 -19.6875 0.125 C-13.39894709 -2.78197257 -6.33852121 -2.79961453 0 0 Z " fill="#000000" transform="translate(63.3125,374.5625)"/>
</svg>
